<mxfile host="Electron" agent="Mozilla/5.0 (Windows NT 10.0; Win64; x64) AppleWebKit/537.36 (KHTML, like Gecko) draw.io/26.0.4 Chrome/128.0.6613.186 Electron/32.2.5 Safari/537.36" version="26.0.4">
  <diagram name="Page-1" id="0783ab3e-0a74-02c8-0abd-f7b4e66b4bec">
    <mxGraphModel dx="1195" dy="803" grid="1" gridSize="10" guides="1" tooltips="1" connect="1" arrows="1" fold="1" page="1" pageScale="1" pageWidth="850" pageHeight="1100" background="none" math="0" shadow="0">
      <root>
        <mxCell id="0" />
        <mxCell id="1" parent="0" />
        <mxCell id="1c1d494c118603dd-1" value="Menu Options Pool" style="swimlane;html=1;childLayout=stackLayout;startSize=20;rounded=0;shadow=0;comic=0;labelBackgroundColor=none;strokeWidth=1;fontFamily=Verdana;fontSize=12;align=center;" parent="1" vertex="1">
          <mxGeometry x="44" y="20" width="750" height="990" as="geometry" />
        </mxCell>
        <mxCell id="1c1d494c118603dd-2" value="New Game" style="swimlane;html=1;startSize=20;" parent="1c1d494c118603dd-1" vertex="1">
          <mxGeometry y="20" width="250" height="970" as="geometry" />
        </mxCell>
        <mxCell id="1c1d494c118603dd-34" style="edgeStyle=none;rounded=0;html=1;labelBackgroundColor=none;startArrow=none;startFill=0;startSize=5;endArrow=classicThin;endFill=1;endSize=5;jettySize=auto;orthogonalLoop=1;strokeWidth=1;fontFamily=Verdana;fontSize=12;entryX=0.5;entryY=0;entryDx=0;entryDy=0;" parent="1c1d494c118603dd-2" source="1c1d494c118603dd-6" target="UkSORgVNk2TvawBsNUPi-2" edge="1">
          <mxGeometry relative="1" as="geometry">
            <mxPoint x="130" y="280" as="targetPoint" />
            <Array as="points">
              <mxPoint x="130" y="200" />
            </Array>
          </mxGeometry>
        </mxCell>
        <mxCell id="1c1d494c118603dd-6" value="Set Board to blanks" style="rounded=1;whiteSpace=wrap;html=1;shadow=0;comic=0;labelBackgroundColor=none;strokeWidth=1;fontFamily=Verdana;fontSize=12;align=center;arcSize=50;" parent="1c1d494c118603dd-2" vertex="1">
          <mxGeometry x="80" y="130" width="100" height="30" as="geometry" />
        </mxCell>
        <mxCell id="60571a20871a0731-4" value="" style="ellipse;whiteSpace=wrap;html=1;rounded=0;shadow=0;comic=0;labelBackgroundColor=none;strokeWidth=1;fillColor=#000000;fontFamily=Verdana;fontSize=12;align=center;" parent="1c1d494c118603dd-2" vertex="1">
          <mxGeometry x="110" y="30" width="40" height="40" as="geometry" />
        </mxCell>
        <mxCell id="UkSORgVNk2TvawBsNUPi-2" value="Versus Computer?&lt;div&gt;&lt;br&gt;&lt;/div&gt;" style="rhombus;whiteSpace=wrap;html=1;" vertex="1" parent="1c1d494c118603dd-2">
          <mxGeometry x="91" y="270" width="80" height="80" as="geometry" />
        </mxCell>
        <mxCell id="UkSORgVNk2TvawBsNUPi-3" value="&lt;div&gt;&lt;font style=&quot;font-size: 9px;&quot;&gt;&quot;opponent&quot; = computer&lt;/font&gt;&lt;/div&gt;" style="rounded=1;whiteSpace=wrap;html=1;shadow=0;comic=0;labelBackgroundColor=none;strokeWidth=1;fontFamily=Verdana;fontSize=12;align=center;arcSize=50;" vertex="1" parent="1c1d494c118603dd-2">
          <mxGeometry x="7" y="390" width="100" height="40" as="geometry" />
        </mxCell>
        <mxCell id="UkSORgVNk2TvawBsNUPi-7" value="Yes" style="endArrow=classic;html=1;rounded=0;exitX=0;exitY=0.5;exitDx=0;exitDy=0;" edge="1" parent="1c1d494c118603dd-2" source="UkSORgVNk2TvawBsNUPi-2" target="UkSORgVNk2TvawBsNUPi-3">
          <mxGeometry width="50" height="50" relative="1" as="geometry">
            <mxPoint x="30" y="313" as="sourcePoint" />
            <mxPoint x="60" y="392" as="targetPoint" />
            <Array as="points">
              <mxPoint x="57" y="310" />
            </Array>
          </mxGeometry>
        </mxCell>
        <mxCell id="UkSORgVNk2TvawBsNUPi-14" value="" style="endArrow=classic;html=1;rounded=0;" edge="1" parent="1c1d494c118603dd-2" source="60571a20871a0731-4" target="1c1d494c118603dd-6">
          <mxGeometry width="50" height="50" relative="1" as="geometry">
            <mxPoint x="130" y="100" as="sourcePoint" />
            <mxPoint x="180" y="50" as="targetPoint" />
          </mxGeometry>
        </mxCell>
        <mxCell id="1c1d494c118603dd-4" value="Scores" style="swimlane;html=1;startSize=20;" parent="1c1d494c118603dd-1" vertex="1">
          <mxGeometry x="250" y="20" width="250" height="970" as="geometry" />
        </mxCell>
        <mxCell id="60571a20871a0731-8" value="Show Scores" style="rounded=1;whiteSpace=wrap;html=1;shadow=0;comic=0;labelBackgroundColor=none;strokeWidth=1;fontFamily=Verdana;fontSize=12;align=center;arcSize=50;" parent="1c1d494c118603dd-4" vertex="1">
          <mxGeometry x="110" y="110" width="100" height="30" as="geometry" />
        </mxCell>
        <mxCell id="1c1d494c118603dd-5" value="Pause" style="rounded=1;whiteSpace=wrap;html=1;shadow=0;comic=0;labelBackgroundColor=none;strokeWidth=1;fontFamily=Verdana;fontSize=12;align=center;arcSize=50;" parent="1c1d494c118603dd-4" vertex="1">
          <mxGeometry x="110" y="208" width="100" height="30" as="geometry" />
        </mxCell>
        <mxCell id="1c1d494c118603dd-8" value="Hide Scores" style="rounded=1;whiteSpace=wrap;html=1;shadow=0;comic=0;labelBackgroundColor=none;strokeWidth=1;fontFamily=Verdana;fontSize=12;align=center;arcSize=50;" parent="1c1d494c118603dd-4" vertex="1">
          <mxGeometry x="110" y="330" width="100" height="30" as="geometry" />
        </mxCell>
        <mxCell id="1c1d494c118603dd-37" style="edgeStyle=none;rounded=0;html=1;labelBackgroundColor=none;startArrow=none;startFill=0;startSize=5;endArrow=classicThin;endFill=1;endSize=5;jettySize=auto;orthogonalLoop=1;strokeWidth=1;fontFamily=Verdana;fontSize=12" parent="1c1d494c118603dd-4" source="1c1d494c118603dd-9" edge="1">
          <mxGeometry relative="1" as="geometry">
            <mxPoint x="107" y="125" as="targetPoint" />
          </mxGeometry>
        </mxCell>
        <mxCell id="1c1d494c118603dd-9" value="Scores" style="rounded=0;whiteSpace=wrap;html=1;shadow=0;comic=0;labelBackgroundColor=none;strokeWidth=1;fontFamily=Verdana;fontSize=12;align=center;arcSize=50;" parent="1c1d494c118603dd-4" vertex="1">
          <mxGeometry x="5" y="110" width="70" height="30" as="geometry" />
        </mxCell>
        <mxCell id="1c1d494c118603dd-45" style="edgeStyle=none;rounded=0;html=1;labelBackgroundColor=none;startArrow=none;startFill=0;startSize=5;endArrow=classicThin;endFill=1;endSize=5;jettySize=auto;orthogonalLoop=1;strokeWidth=1;fontFamily=Verdana;fontSize=12" parent="1c1d494c118603dd-4" source="1c1d494c118603dd-8" target="60571a20871a0731-5" edge="1">
          <mxGeometry relative="1" as="geometry">
            <mxPoint x="149.83783783783792" y="358" as="sourcePoint" />
            <mxPoint x="148.21620358294308" y="508.0011685777572" as="targetPoint" />
          </mxGeometry>
        </mxCell>
        <mxCell id="60571a20871a0731-5" value="" style="shape=mxgraph.bpmn.shape;html=1;verticalLabelPosition=bottom;labelBackgroundColor=#ffffff;verticalAlign=top;perimeter=ellipsePerimeter;outline=end;symbol=terminate;rounded=0;shadow=0;comic=0;strokeWidth=1;fontFamily=Verdana;fontSize=12;align=center;" parent="1c1d494c118603dd-4" vertex="1">
          <mxGeometry x="139" y="422" width="40" height="40" as="geometry" />
        </mxCell>
        <mxCell id="UkSORgVNk2TvawBsNUPi-17" style="edgeStyle=none;rounded=0;html=1;labelBackgroundColor=none;startArrow=none;startFill=0;startSize=5;endArrow=classicThin;endFill=1;endSize=5;jettySize=auto;orthogonalLoop=1;strokeWidth=1;fontFamily=Verdana;fontSize=12" edge="1" parent="1c1d494c118603dd-4" source="60571a20871a0731-8" target="1c1d494c118603dd-5">
          <mxGeometry relative="1" as="geometry">
            <mxPoint x="137" y="170" as="sourcePoint" />
            <mxPoint x="158" y="230" as="targetPoint" />
          </mxGeometry>
        </mxCell>
        <mxCell id="UkSORgVNk2TvawBsNUPi-18" style="edgeStyle=none;rounded=0;html=1;labelBackgroundColor=none;startArrow=none;startFill=0;startSize=5;endArrow=classicThin;endFill=1;endSize=5;jettySize=auto;orthogonalLoop=1;strokeWidth=1;fontFamily=Verdana;fontSize=12" edge="1" parent="1c1d494c118603dd-4" source="1c1d494c118603dd-5" target="1c1d494c118603dd-8">
          <mxGeometry relative="1" as="geometry">
            <mxPoint x="170" y="210" as="sourcePoint" />
            <mxPoint x="168" y="360" as="targetPoint" />
          </mxGeometry>
        </mxCell>
        <mxCell id="1c1d494c118603dd-3" value="Settings" style="swimlane;html=1;startSize=20;" parent="1c1d494c118603dd-1" vertex="1">
          <mxGeometry x="500" y="20" width="250" height="970" as="geometry" />
        </mxCell>
        <mxCell id="UkSORgVNk2TvawBsNUPi-27" value="" style="shape=mxgraph.bpmn.shape;html=1;verticalLabelPosition=bottom;labelBackgroundColor=#ffffff;verticalAlign=top;perimeter=ellipsePerimeter;outline=end;symbol=terminate;rounded=0;shadow=0;comic=0;strokeWidth=1;fontFamily=Verdana;fontSize=12;align=center;" vertex="1" parent="1c1d494c118603dd-3">
          <mxGeometry x="156" y="300" width="40" height="40" as="geometry" />
        </mxCell>
        <mxCell id="UkSORgVNk2TvawBsNUPi-13" style="edgeStyle=orthogonalEdgeStyle;rounded=0;orthogonalLoop=1;jettySize=auto;html=1;exitX=0.5;exitY=1;exitDx=0;exitDy=0;entryX=1;entryY=0.5;entryDx=0;entryDy=0;" edge="1" parent="1" source="UkSORgVNk2TvawBsNUPi-5" target="UkSORgVNk2TvawBsNUPi-9">
          <mxGeometry relative="1" as="geometry" />
        </mxCell>
        <mxCell id="UkSORgVNk2TvawBsNUPi-5" value="&lt;font style=&quot;font-size: 9px;&quot;&gt;&quot;opponent&quot; = human&lt;/font&gt;" style="rounded=1;whiteSpace=wrap;html=1;shadow=0;comic=0;labelBackgroundColor=none;strokeWidth=1;fontFamily=Verdana;fontSize=12;align=center;arcSize=50;" vertex="1" parent="1">
          <mxGeometry x="190" y="429" width="93" height="41" as="geometry" />
        </mxCell>
        <mxCell id="UkSORgVNk2TvawBsNUPi-6" value="No" style="endArrow=classic;html=1;rounded=0;exitX=1;exitY=0.5;exitDx=0;exitDy=0;entryX=0.5;entryY=0;entryDx=0;entryDy=0;" edge="1" parent="1" source="UkSORgVNk2TvawBsNUPi-2">
          <mxGeometry width="50" height="50" relative="1" as="geometry">
            <mxPoint x="220" y="329" as="sourcePoint" />
            <mxPoint x="233" y="428" as="targetPoint" />
            <Array as="points">
              <mxPoint x="233" y="349" />
            </Array>
          </mxGeometry>
        </mxCell>
        <mxCell id="UkSORgVNk2TvawBsNUPi-9" value="Play Game&lt;div&gt;&lt;br&gt;&lt;/div&gt;" style="shape=mxgraph.bpmn.shape;html=1;verticalLabelPosition=bottom;labelBackgroundColor=#ffffff;verticalAlign=top;perimeter=ellipsePerimeter;outline=end;symbol=terminate;rounded=0;shadow=0;comic=0;strokeWidth=1;fontFamily=Verdana;fontSize=12;align=center;" vertex="1" parent="1">
          <mxGeometry x="138" y="578" width="40" height="40" as="geometry" />
        </mxCell>
        <mxCell id="UkSORgVNk2TvawBsNUPi-11" style="edgeStyle=orthogonalEdgeStyle;rounded=0;orthogonalLoop=1;jettySize=auto;html=1;exitX=0.5;exitY=1;exitDx=0;exitDy=0;" edge="1" parent="1" source="UkSORgVNk2TvawBsNUPi-3" target="UkSORgVNk2TvawBsNUPi-9">
          <mxGeometry relative="1" as="geometry">
            <Array as="points">
              <mxPoint x="90" y="598" />
            </Array>
          </mxGeometry>
        </mxCell>
        <mxCell id="UkSORgVNk2TvawBsNUPi-16" value="" style="ellipse;whiteSpace=wrap;html=1;rounded=0;shadow=0;comic=0;labelBackgroundColor=none;strokeWidth=1;fillColor=#000000;fontFamily=Verdana;fontSize=12;align=center;" vertex="1" parent="1">
          <mxGeometry x="433" y="69" width="40" height="40" as="geometry" />
        </mxCell>
        <mxCell id="UkSORgVNk2TvawBsNUPi-19" value="" style="endArrow=classic;html=1;rounded=0;" edge="1" parent="1" source="UkSORgVNk2TvawBsNUPi-16" target="60571a20871a0731-8">
          <mxGeometry width="50" height="50" relative="1" as="geometry">
            <mxPoint x="400" y="430" as="sourcePoint" />
            <mxPoint x="350" y="240" as="targetPoint" />
          </mxGeometry>
        </mxCell>
        <mxCell id="UkSORgVNk2TvawBsNUPi-20" value="" style="ellipse;whiteSpace=wrap;html=1;rounded=0;shadow=0;comic=0;labelBackgroundColor=none;strokeWidth=1;fillColor=#000000;fontFamily=Verdana;fontSize=12;align=center;" vertex="1" parent="1">
          <mxGeometry x="629" y="71" width="40" height="40" as="geometry" />
        </mxCell>
        <mxCell id="UkSORgVNk2TvawBsNUPi-21" value="&lt;div&gt;Change screen colour?&lt;/div&gt;" style="rhombus;whiteSpace=wrap;html=1;" vertex="1" parent="1">
          <mxGeometry x="609" y="132" width="80" height="80" as="geometry" />
        </mxCell>
        <mxCell id="UkSORgVNk2TvawBsNUPi-22" value="Change colours" style="rounded=1;whiteSpace=wrap;html=1;shadow=0;comic=0;labelBackgroundColor=none;strokeWidth=1;fontFamily=Verdana;fontSize=12;align=center;arcSize=50;" vertex="1" parent="1">
          <mxGeometry x="551" y="258" width="100" height="30" as="geometry" />
        </mxCell>
        <mxCell id="UkSORgVNk2TvawBsNUPi-23" value="Yes" style="endArrow=classic;html=1;rounded=0;" edge="1" parent="1" target="UkSORgVNk2TvawBsNUPi-22">
          <mxGeometry width="50" height="50" relative="1" as="geometry">
            <mxPoint x="610.3114754098362" y="171.68852459016398" as="sourcePoint" />
            <mxPoint x="591.7087378640776" y="259" as="targetPoint" />
            <Array as="points">
              <mxPoint x="600" y="172" />
            </Array>
          </mxGeometry>
        </mxCell>
        <mxCell id="UkSORgVNk2TvawBsNUPi-24" value="No" style="endArrow=classic;html=1;rounded=0;" edge="1" parent="1" target="UkSORgVNk2TvawBsNUPi-27">
          <mxGeometry width="50" height="50" relative="1" as="geometry">
            <mxPoint x="688.8732394366198" y="170.8732394366197" as="sourcePoint" />
            <mxPoint x="719" y="238" as="targetPoint" />
            <Array as="points">
              <mxPoint x="720" y="171" />
            </Array>
          </mxGeometry>
        </mxCell>
        <mxCell id="UkSORgVNk2TvawBsNUPi-26" value="" style="endArrow=classic;html=1;rounded=0;" edge="1" parent="1" source="UkSORgVNk2TvawBsNUPi-20" target="UkSORgVNk2TvawBsNUPi-21">
          <mxGeometry width="50" height="50" relative="1" as="geometry">
            <mxPoint x="610" y="180" as="sourcePoint" />
            <mxPoint x="660" y="130" as="targetPoint" />
          </mxGeometry>
        </mxCell>
        <mxCell id="UkSORgVNk2TvawBsNUPi-28" value="" style="endArrow=classic;html=1;rounded=0;" edge="1" parent="1" source="UkSORgVNk2TvawBsNUPi-22" target="UkSORgVNk2TvawBsNUPi-27">
          <mxGeometry width="50" height="50" relative="1" as="geometry">
            <mxPoint x="610" y="290" as="sourcePoint" />
            <mxPoint x="660" y="240" as="targetPoint" />
            <Array as="points">
              <mxPoint x="601" y="360" />
            </Array>
          </mxGeometry>
        </mxCell>
      </root>
    </mxGraphModel>
  </diagram>
</mxfile>
